<?xml version="1.0" encoding="utf-8"?>
<!-- Generator: Adobe Illustrator 25.2.1, SVG Export Plug-In . SVG Version: 6.00 Build 0)  -->
<svg version="1.1" xmlns="http://www.w3.org/2000/svg" xmlns:xlink="http://www.w3.org/1999/xlink" x="0px" y="0px"
	 viewBox="0 0 112 112" style="enable-background:new 0 0 112 112;" xml:space="preserve">
<style type="text/css">
	.st0{fill:#FBBB0E;}
	.st1{fill:#1C1B15;}
	.st2{fill:#FFFFFF;}
	.st3{fill:#EE7485;}
	.st4{fill:#5A4A99;}
	.st5{fill:#FFE601;}
	.st6{fill:#6895CE;}
	.st7{fill:#DF4692;}
	.st8{fill:#C72626;}
	.st9{fill:#A99733;}
	.st10{fill:#F9CFE3;}
	.st11{fill:#E52421;}
	.st12{fill:#EC7418;}
	.st13{display:none;}
	.st14{display:inline;fill:#FFFFFF;}
	.st15{fill:#E84B1D;}
	.st16{display:none;fill:#1C1B15;}
	.st17{display:none;fill:#FFFFFF;}
	.st18{fill:none;stroke:#1C1B15;stroke-width:2;stroke-miterlimit:10;}
	.st19{fill:none;stroke:#1C1B15;stroke-width:1.5;stroke-miterlimit:10;}
	.st20{fill:none;stroke:#1C1B15;stroke-miterlimit:10;}
	.st21{fill:none;stroke:#000000;stroke-width:2;stroke-miterlimit:10;}
	.st22{fill:none;stroke:#C72626;stroke-miterlimit:10;}
</style>
<g id="Calque_12">
</g>
<g id="corps_pingouin">
	<path class="st1" d="M23.24,150.24c0,4.93-0.79,16.57,6.51,23.48c7.3,6.9,22.29,10.85,34.13,7.3s23.08-8.09,24.46-16.57
		c1.38-8.48,1.78-20.32,1.78-26.63c0-6.31-0.25-27.6-0.05-32.93c0.2-5.33,1.47-18.13,1.66-20.89c0.2-2.76-0.31-15.35-0.31-17.32
		s-2.88-15.66-5.05-18.23c-2.17-2.56-27.62-3.35-35.31-0.39s-21.6,31-22.58,39.48S23.24,150.24,23.24,150.24z"/>
</g>
<g id="ventre">
</g>
<g id="visage">
	<path class="st2" d="M48.31,70.2c-1.5,5.18-6.06,18.34,3.45,24.02c9.52,5.68,24.3,5.55,29.33,0.66s7.05-8.53,7.23-14.84
		c0.18-6.31-1.71-12.66-4.58-16.29c-2.87-3.63-12.59-5.65-17.98-5.65S50.82,61.52,48.31,70.2z"/>
</g>
<g id="sweat">
	<path class="st6" d="M19.35,151.15c0,0,0.04-8.26-0.74-13.78c-0.79-5.52,1.54-6.53,1.54-6.53s-5.52,2.1-13.68,1.84
		s-14.07-4.21-14.07-4.21s31.87-2.43,23.06-17.02c-10.12-16.77-1.1-47.19,1.27-57.06s5.13-15.39,8.29-19.07s9.6-10.26,14.73-12.63
		s12.48-3.56,18.54-3.42c9.22,0.22,30.7,11.57,36.98,40.12c6.36,28.92-0.29,44.24-4.05,54.36c-2.49,6.69,19.96,8.94,19.96,8.94
		s-3.42,2.37-7.63,2.37s-13.02-1.58-13.02-1.58s-0.15-1.37,0.24,2.57c0.39,3.95,1.18,9.21,1.18,11.31s-0.39,6.44-0.39,6.44
		l-1.57-0.25c0,0-9.1-13.24-9.76-16.8c-0.66-3.55,2.31-9.83,7.03-20.45c2.27-5.12,4.19-20.67,4.32-25.27
		c0.13-4.6,0.24-28.32-7.92-31.21S71.6,46.4,66.77,46.37c-5.04-0.02-12.06,5.45-17.26,7.95c-15.27,7.32-24.23,37.76-10.35,59.45
		c6.92,10.81,1.45,32.96,1.45,32.96L19.35,151.15z"/>
</g>
<g id="Calque_11">
	<polygon class="st12" points="71.27,79.94 81.96,92.23 59.41,88.61 	"/>
</g>
<g id="yeux_poulet" class="st13">
</g>
<g id="pupilles_poulet">
	<path class="st1" d="M52.9,32.16c4.05-5.71,10.17,3.53,5.11,7.39S45.87,42.07,52.9,32.16z"/>
	<path class="st1" d="M67.43,29.34c3.77,0.62,8.39,2.52,4.85,5.7C68.27,38.63,63.65,28.71,67.43,29.34z"/>
	<path class="st6" d="M57.38,84.35c0,0-7.25,6.95-6.27,9.98c1.53,4.75,6.03,4.42,7.88,1.77C60.84,93.44,57.38,84.35,57.38,84.35z"/>
</g>
<g id="bec_poulet">
	<path class="st15" d="M54.04,52.04c0,0,22.36-1.58,26.29-1.86c3.93-0.28,22.07-1.25,22.07-1.25s-8.62-4.71-15.12-6.79
		s-15.12-5.13-20.41-4.44s-8.01,3.74-9.83,5.96C55.24,45.88,51.92,47.05,54.04,52.04z"/>
</g>
<g id="yeux_pingouin">
	<path class="st1" d="M55.58,69.96c7.42-3.9,7.88-2.67,7.87,1.61c-0.01,5.04-3.02,9.9-7.47,8.62S47.34,74.3,55.58,69.96z"/>
	<path class="st1" d="M78.06,67.51c2.82,2.17,7.51,4.52,6,8.24s-4.55,4.34-7.7,1.35C72.93,73.82,75.63,65.63,78.06,67.51z"/>
	<path class="st2" d="M57.92,70.04c-1.83,0.84,0.86,2.72,2.28,1.59C61.63,70.5,60.06,69.06,57.92,70.04z"/>
	<path class="st2" d="M77.67,69.88c-0.24,0.68-0.36,1.24,0.42,1.64c0.78,0.4,2.51-0.55,2.15-1.35S78.11,68.66,77.67,69.88z"/>
</g>
<g id="crête">
	<path class="st15" d="M25.01,35.33c0,0,8.84-7.57,14.6-10.65c9.07-4.87,18.68-5.39,18.68-5.39S52.89,9.03,51.58,6.66
		S46.44-0.98,40.93,1c-6.58,2.37-4.87,11.97-4.87,11.97s-3.35-4.36-7.36-2.1c-6.31,3.55,1.58,15.65,1.58,15.65s-2.77-6.54-6.31-4.08
		C19.23,25.73,25.01,35.33,25.01,35.33z"/>
</g>
<g id="Calque_13">
</g>
</svg>
